<svg xmlns="http://www.w3.org/2000/svg" viewBox="0 0 98 22"><defs><style>.cls-1{opacity:0;}.cls-2{fill:#fff;}</style></defs><title>Asset 28</title><g id="Layer_2" data-name="Layer 2"><g id="Control_-_Crtl" data-name="Control - Crtl"><g id="Logo_Corus" data-name="Logo Corus"><rect class="cls-1" width="98" height="22"/><path class="cls-2" d="M51,.45c-7.8,0-10.74,5.43-10.71,11.11V21.69h5.56V12.52c0-3.19,1.61-6.5,5.7-6.5h1V.45Z"/><path class="cls-2" d="M14.8,15a5.52,5.52,0,1,1,0-8l3-4.63a11,11,0,1,0,0,17.26Z"/><path class="cls-2" d="M27.7,0a11,11,0,1,0,11,11,11,11,0,0,0-11-11m0,16.52A5.52,5.52,0,1,1,33.23,11a5.52,5.52,0,0,1-5.52,5.52"/><path class="cls-2" d="M88.29,10.56a14.6,14.6,0,0,0-4.08-2l-.34-.13C82.68,8,80.83,7.42,80.8,6.15c0-1,1.18-1.4,2.28-1.4a11.68,11.68,0,0,1,4.74,1.46l2.56-3.93A17.44,17.44,0,0,0,87.21.74,13,13,0,0,0,83,0c-2.15,0-5.13.49-7.12,2.83a5.5,5.5,0,0,0-1.33,3.52,5.76,5.76,0,0,0,2.88,4.8,23.32,23.32,0,0,0,3.66,1.8l.18.06A7.2,7.2,0,0,1,84.2,14.5a1.37,1.37,0,0,1,.37,1c-.1,1.18-1.31,1.53-3.12,1.32a14.74,14.74,0,0,1-5.37-2.12L73.21,19.1a13.59,13.59,0,0,0,4.3,2.3A15.83,15.83,0,0,0,81.8,22a12.29,12.29,0,0,0,4.68-.9A7.69,7.69,0,0,0,88.31,20a5.94,5.94,0,0,0,2.51-4.87,5.37,5.37,0,0,0-2.52-4.56"/><path class="cls-2" d="M67.35.45V12.2c0,3-1.5,4.35-3.75,4.35s-3.75-1.3-3.75-4.4V.45H54.28V12.83c0,6,3.53,9.17,9.31,9.17s9.34-3.27,9.31-9.12V.45Z"/><path class="cls-2" d="M97.94,18.84a3.16,3.16,0,1,1-3.16-3.16,3.16,3.16,0,0,1,3.16,3.16"/></g></g></g></svg>