<?xml version="1.0" encoding="utf-8"?>
<!-- Generator: Adobe Illustrator 21.1.0, SVG Export Plug-In . SVG Version: 6.00 Build 0)  -->
<svg version="1.1" id="Disney_Jr" xmlns="http://www.w3.org/2000/svg" xmlns:xlink="http://www.w3.org/1999/xlink" x="0px" y="0px"
	 viewBox="0 0 125 125" style="enable-background:new 0 0 125 125;" xml:space="preserve">
<style type="text/css">
	.st0{fill:#FFFFFF;}
	.st1{display:none;}
	.st2{display:inline;fill:#FFFFFF;}
</style>
<g>
	<path class="st0" d="M53.8,51.1c-0.3-1.1,1.1-2.4,3.3-2.8C55.9,49,54.6,50.1,53.8,51.1z M17.9,63c0,1,3.7,4,8.9,5.8
		c0-2.4,0-5.8,0-8.2C22.6,60.9,17.9,61.5,17.9,63z M55.5,52.5c0.4,0.1,1,0.2,1.5,0.2c1.4,0,4.8-1.3,4.8-3c0-0.3-0.1-1-1.1-1
		C59.4,48.7,56.6,51.2,55.5,52.5z M115,67.4c-0.9,1.5-2.2,2.9-3.6,3.9c-1.5,1.1-3.6,1.9-5.4,2.2l-2,7c-0.3,0.9-0.4,1.7-0.5,2.6
		c-0.1,0.9-0.5,3.4-3.3,2.9c-1.6-0.3-2.9-1.9-3.7-3.4h-54c-2.7,0-4.7-2.2-4.7-4.8v-2.2c-1.5,0-4.1-0.2-5.4-0.5
		c-1.1,1.6-3,1.9-4.4,1.4c-2.2-0.6-2.6-2.8-2.8-3.8c-4.1-1.9-7.1-4.7-8.3-6.3c-1.2-1.4-2.3-3.2-1.6-5.2c0.6-1.7,2.4-2.9,4-3.7
		c1.8-0.9,4.1-1.5,6-1.9c0.3-3.4,0.9-6.6,1.7-8.9c-3.8-1.1-7.8-1.3-11.3-1.1c-0.2,1.2-1.1,1.8-2,2c-2.4,0.4-4.2-0.2-4.7-1.8
		c-0.4-1.4,0-4.6,4.4-6c2-0.6,6.7-0.9,8.8-0.8c7,0.1,13.9,3,17.5,4.8c3.6,1.8,7.3,4.4,10.6,7.5c-0.1-1.9,1.1-3.7,2.5-5l0,0
		c-0.5-1-0.6-2-0.4-3.1c0.2-0.9,0.9-1.7,1.5-2.3c1.4-1.1,3.2-1.3,4.8-0.6c0.8,0.3,1.4,0.8,1.9,1.4c0.5,0.6,0.9,1.4,0.9,2.2
		c1.2-1,2.8-1.3,4.2-0.9s2.6,1.3,3.1,2.6c0.8,1.5,0.8,3.4-0.2,4.8c-0.9,1.3-2.7,2.2-4.3,1.9c-1.5,2.2-4.1,3.6-4.7,4
		c1.3-0.6,5.8-1.6,9.3-1.6c3.7,0,9.4,0.2,12,2.7c-0.2-1.4-0.3-2.7,0.4-3.7c0.5-0.6,1.3-1,2.2-1c1.8,0.1,3.2,1.9,4.2,3.7
		c1.7-0.9,8.4-1.7,10-1.7c1.8,0,3.6,1,4.2,1.6c0.6-0.6,1.8-1.3,2.7-1.6c1.7-0.8,3.8-0.9,5.6-0.4c1.7,0.4,5.4,2.3,6.1,6.1
		C116.7,62.9,116.2,65.3,115,67.4z M74.9,67.8c0,1.9,0.3,3.2,1.7,3.2c2.2,0,1.1-7.9,1.8-7.9c0.6,0,4.1,7.1,6,7.1c2,0,3.3-3,3.3-5.1
		c0-4.5-3-10.1-4.8-10.1c-0.4,0-0.5,0.4-0.5,1c0,1.5,2,6.7,2,8.6c0,0.4,0,1.2-0.3,1.2c-0.5,0.1-4.8-7.8-6.6-7.9
		C75.9,58,74.9,65.8,74.9,67.8z M59.4,61.5c0,2.9,4.3,2.3,7.2,2.5c2.4,0.2,5.2,1,5.2,1.7c0,1.7-6.3,2.4-7.5,2.5
		c-2.7,0-2.7-0.8-2.7-1.2S62,66,62.9,66c1,0,3,1.3,4.4,1.3c1.4,0,2.6-0.6,2.6-1.3c0-1.2-4.6-1.7-6.1-1.7c-1.5,0-3.7,0.6-3.7,2.9
		c0,1.2,1.9,4,7.3,4s6.7-3,6.7-4.6c0-3.8-3.7-4.2-6.8-4.5c-2.4-0.2-4.8-0.3-4.8-0.9c0-1.7,11.7-0.4,11.7-2.8c0-1.4-3.7-1.4-5.7-1.4
		C67.1,57,59.4,57.1,59.4,61.5z M52,51.2c0,1.3,1,3.4,4.7,3.4c2.2,0,5.5-2.2,6.5-4.2c0.3,0.2,0.6,0.3,1,0.3c0.9,0.1,1.7-0.1,2.4-0.6
		c0.6-0.5,1-1.4,0.9-2.3c0-0.8-0.3-1.4-0.9-1.9c-0.9-0.9-1.8-1.2-2.8-1.1c-0.9,0.1-1.6,0.6-2,1.4c-0.2,0.3-0.3,0.8-0.3,1.2l0,0
		c-0.5-0.5-1.4-1.2-2.6-1.2c0.4-0.4,0.8-1.1,0.6-1.8c0-0.9-0.5-1.6-1.2-2c-1.3-0.9-3.1-0.6-4.1,0.6c-0.5,0.6-0.6,1.5-0.3,2.4
		c0.3,0.8,0.9,1.3,1.6,1.5C53.3,48,52,49.9,52,51.2z M53.7,62.2c0-8.8-17.9-21.6-33.3-21.1c-1.7,0-3.2,0.1-4.5,0.3
		c-1.3,0.2-2.4,0.4-3,0.6c-1.1,0.5-2.2,1.7-2.2,2.7c0,1,1.1,1,1.7,1s1.3-0.1,1.3-0.4c0-0.5-0.9-0.4-0.9-1c0-0.6,3.4-0.8,5.2-0.8
		c14.7,0,31.6,10.1,31.6,18.8c0,6.7-8.7,8.2-13.5,8.2c-1.7,0-3.3-0.2-5-0.4c-0.1-2.2-0.2-6.6-0.2-9.5c0.5,0,1.1,0,1.5,0
		c3.6,0,8.2,1.3,8.2,2s-1.2,1.2-1.2,1.8c0,0.5,1.2,0.4,2.2,0.5c0.2,0,2.2-1.1,2.2-2.9c0-2.4-3-5.1-12.9-5.1
		c-0.1-2.6-0.5-6.8-1.9-6.8c-1.3,0-1.6,4.5-1.7,7.1c-5.4,0.8-10.1,3-10.1,5.2c0,1.7,3.9,6.1,10,8.8c0.1,1.9,0.4,3.3,2.3,3.3
		c1.3,0,1.7-1,1.8-1.9c2,0.5,4.2,0.8,6.5,0.8C46.4,73.6,53.7,68.8,53.7,62.2z M49.7,79.3c-0.1-0.4-0.5-0.5-1-0.4
		c-0.9,0.3-5,0.5-6,0.4c-0.5,0-1.1-0.3-1.2-0.5c0-0.1,0.1-0.5,0.8-1.1c2.2-1.8,3.3-2.2,4.1-2.2c0.2,0,0.2,0,0.3,0
		c0.1,0.3,0.4,0.5,0.9,0.4c0.4-0.1,0.6-0.4,0.5-0.9s-0.5-1.2-1.8-1.1c-1,0.1-2.5,0.4-5,2.6c-1.1,1-1.5,1.8-1.2,2.7
		c0.3,1.1,1.7,1.5,2.7,1.5c1.4,0,5.3-0.2,6.4-0.5C49.7,80.1,49.8,79.6,49.7,79.3z M56.8,76.6c0-0.4-0.4-0.6-0.9-0.6h-0.1L55.7,74
		c0-0.4-0.3-0.8-0.8-0.6c-0.4,0-0.8,0.3-0.6,0.8l0.1,2.3c-0.6,0.2-1.4,0.4-2,0.5v-2.3c0-0.4-0.3-0.8-0.8-0.8s-0.8,0.3-0.8,0.8v2.7
		c-0.3,0.1-0.5,0.1-0.6,0.2c-0.4,0.1-0.6,0.5-0.4,0.9c0.1,0.3,0.4,0.5,0.6,0.5c0.1,0,0.1,0,0.2,0c0.1,0,0.1,0,0.2-0.1v1.4
		c0,0.4,0.3,0.8,0.8,0.8s0.8-0.3,0.8-0.8v-1.7c0.8-0.2,1.5-0.4,2-0.6l0.1,2.7c0,0.4,0.3,0.6,0.8,0.6l0,0c0.4,0,0.8-0.3,0.6-0.8
		l-0.1-3.1C56.6,77.5,56.9,77.2,56.8,76.6z M57,71c1.2,0,1.6-0.1,1.5-4.4c-0.2-8.1-0.8-9.7-1.9-9.7c-1.5,0-1.5,6.1-1.6,8.4
		C54.8,70.4,55.6,71,57,71z M64.8,80.2c-0.5-1-1-1.8-1.3-2.6c0.1-0.1,0.1-0.3,0.1-0.5c-0.1-0.3-0.3-0.5-0.6-0.5c-1.6-3-2-3-2.4-3
		c-0.4,0-0.9,0-2,4.5c-0.5,0-0.8,0.1-0.9,0.1c-0.3,0.1-0.5,0.5-0.4,1c0.1,0.2,0.3,0.4,0.6,0.4c-0.1,0.3-0.2,0.6-0.2,1.1
		c-0.1,0.4,0.2,0.9,0.6,0.9s0.8-0.2,0.8-0.5c0.1-0.6,0.3-1.3,0.4-1.9c0.8-0.3,1.7-0.6,2.6-0.9c0.4,0.9,1,1.8,1.4,2.7
		c0.2,0.3,0.6,0.5,1,0.3C64.8,80.9,64.9,80.5,64.8,80.2z M71.1,73.2c-0.4,0-0.8,0.2-0.8,0.6c0,0.3-0.2,3.9-0.2,5.1
		c-0.4-0.5-1-1.3-1.4-1.8c-0.4-0.6-0.9-1.2-1.3-1.6c-0.5-0.6-0.9-1.2-1.5-0.9c-0.5,0.2-0.5,0.4-0.5,3.7c0,2.9,0.1,3.1,0.1,3.1
		c0.1,0.3,0.4,0.5,0.8,0.4c0.4,0,0.6-0.4,0.6-0.8c0-0.3-0.1-2.5,0-4c0.2,0.3,0.4,0.6,0.6,1c1.7,2.4,2.2,2.8,2.5,3
		c0.3,0.1,0.6,0.1,0.9,0c0.5-0.3,0.6-1.4,0.6-2.6c0-1.2,0.2-4.1,0.2-4.3C71.8,73.6,71.6,73.3,71.1,73.2z M79.5,79.9
		c0-0.9-0.5-5.4-0.5-5.6c0-0.4-0.4-0.6-0.8-0.6c-0.4,0-0.6,0.4-0.6,0.8c0.1,1.2,0.3,3.2,0.4,4.4c-0.2-0.2-0.4-0.4-0.6-0.5l-0.1-0.1
		c-0.3-0.3-0.8-0.8-1.3-1.3c-1.8-1.9-2-2.2-2.6-2C72.7,75,72.7,75.4,73,78c0.1,1.3,0.2,2.5,0.2,2.5c0,0.4,0.3,0.6,0.8,0.6
		c0,0,0,0,0.1,0c0.4,0,0.6-0.4,0.6-0.8c-0.1-1.2-0.2-2.4-0.2-3.2c0.2,0.2,0.4,0.4,0.6,0.6c0.5,0.5,1,1.1,1.3,1.4l0.1,0.1
		c1.2,1.2,1.9,1.8,2.6,1.5C79.1,80.8,79.5,80.5,79.5,79.9z M86.7,79.3c-0.2-0.3-0.5-0.3-1-0.2c-1.7,0.3-2.9,0.4-3.6,0.4
		c0-0.2-0.1-0.9-0.1-1.2c1.1,0,2.3-0.1,3.2-0.3c0.4-0.1,0.6-0.4,0.6-0.8c0-0.4-0.4-0.8-0.6-0.6c-0.6,0.1-2.2,0.2-3.3,0.2
		c-0.1-0.6-0.1-0.8-0.1-1.2c0.2,0,0.4,0,0.5,0c0.5,0,3.3-0.1,3.6-0.2c0.3-0.1,0.5-0.5,0.4-1c-0.1-0.3-0.4-0.5-0.8-0.4
		c-0.2,0-2.4,0.1-3.2,0.1s-1.4,0-1.7,0.3c-0.1,0.1-0.3,0.3-0.3,0.6c0,0,0.1,1.4,0.2,2.7l0,0c0,0.1,0,0.1,0,0.2
		c0.1,1.1,0.3,2,0.5,2.3c0.2,0.3,0.8,0.4,1.5,0.3c1.5-0.1,3.1,0,3.9-0.4C86.9,80.1,87,79.6,86.7,79.3z M95.4,80.3
		c0-0.4-0.2-0.8-0.6-0.8c-2.2-0.2-4.3,0.1-5.2,0.2h-0.1c0-0.8-0.1-5.1-0.1-5.3c0-0.4-0.3-0.8-0.8-0.8c-0.4,0-0.8,0.3-0.8,0.8
		c0,1.7,0.1,5.1,0.1,5.3c0,1.1,0.9,1.5,1.7,1.3c0.8-0.1,2.8-0.4,4.8-0.2C94.9,80.9,95.4,80.7,95.4,80.3z M99,68.8
		c0.1-0.8-1-1.5-1.7-1.5c-0.8,0-5,1-5.2,0.6c-0.3-0.2,0.2-2.7,0.8-2.8c0.5-0.2,3.8-0.1,4.3-0.1c1.5-0.1,1.2-2.2,0.3-2.2
		c-0.4,0-3.4,0-3.6-0.3c-0.1-0.2,0-1.6,0.4-1.7c0.6-0.3,5.2-0.4,5.5-0.5c0.5-0.1,1-0.4,1.1-0.9c0.1-0.4-1.5-2.5-3.7-2.2
		c-3.6,0.4-8.3,0.3-8.2,1.5c0,1.1,2.2,1.5,2.3,1.8s-0.3,1.4-0.4,1.8c-0.1,0.4-1.7,0.5-1.8,1.6c0,0.2,0.4,0.6,0.3,1
		c-0.2,0.9-1,2.8-1,3.6c0,1.2,0.9,3.9,3.3,3.8C95.5,71.9,98.9,69.2,99,68.8z M114.4,62.8c0-4-2.4-5-3.1-5c-2,0.1-6.1,4.6-8.5,7.5
		c-0.1-0.3-0.2-0.6-0.2-0.9c0-1.3,2.4-5.1,2.8-6s-0.1-2.3-0.6-1.8c-1.1,1-4.7,5.1-4.7,9.1c0,0.9,0.2,1.9,0.8,3
		c-0.8,2.6-2.8,8.4-2.7,12c0,1.8,1.8,3.7,3,3.3c0.4-0.1,0.5-2.5,1.1-4.1c0.8-2.4,2-6.6,2.5-8.4C109.5,71.9,114.4,66.8,114.4,62.8z
		 M60,77.3c0.4-0.2,1-0.3,1.4-0.4c-0.3-0.5-0.5-1-0.8-1.4C60.5,75.9,60.2,76.5,60,77.3z M111.5,60.8c-1,0-3.6,4-5.3,7.1
		c2.6,0,6.3-2.5,6.1-5.4C112.4,61.4,112.2,60.8,111.5,60.8z"/>
</g>
<g class="st1">
	<path class="st2" d="M12.6,15c-0.7-0.1-0.9,1.2-1.1,2.6c-0.2,1.3-0.1,3,0.8,3.1c0.9,0.1,1.1-2,1.1-3C13.5,16.7,13.3,15.1,12.6,15z"
		/>
	<path class="st2" d="M32.6,17.1c0,0,0.2-1.8-0.8-1.9c-0.8-0.1-0.9,1.3-0.9,1.9C31.1,17.2,32.6,17.1,32.6,17.1z"/>
	<path class="st2" d="M35.2,17.3c-0.1-2.7-1.9-3.7-1.9-3.7c-1.3-0.8-3-0.5-4,0.6l0,0c-0.2,0.2-0.4,0.5-0.5,0.8c-0.3-0.9-1-1.6-2-1.9
		c-1.2-0.3-2.4,0-3.3,0.9l0,0c-0.4,0.4-0.5,0.7-0.6,0.8l-0.2-2L19,13.3l0,0v0.4h-3.2l-0.1,0.8l0,0c-0.5-0.8-1.3-1.4-2.2-1.5
		c-1.3-0.2-2.5,0.2-3.4,1.2l0,0c-0.3,0.4-0.7,0.8-0.9,1.4c0-0.1-0.4-2.1-1.9-3.1c-1.1-0.7-2.5-0.6-3.5,0.3L3.7,8.1l-4,0.1L0,13.9
		c-0.5-1-1.3-1.8-2.4-1.9c-1.1-0.2-2.3,0.2-3.1,1l0,0c-0.6,0.6-1,1.6-1.2,3c-0.6-1-1.6-1.9-2.9-1.9l0,0c0-1.3-0.6-2.6-1.7-3.3
		l1.8-0.1L-10,5.8L-26.8,7l0.8,4.7l5.2-0.4c0.2,5.3-0.9,12.8-0.9,12.8h5.8l-0.2-3.2l3.5-0.2c0.2,0.9,0.6,1.9,1.2,2.6
		c0.5,0.5,1.1,0.9,1.7,1c0.9,0.1,2-0.1,2.7-0.7l0,0c1-0.8,1.2-2.1,1.2-3.3c0.5,0.7,1.2,1.3,2,1.5c0.9,0.2,2,0,2.8-0.6l0,0
		c0.7-0.6,1-1.4,1.2-2.3l0.3,5.2h4.3c0-1.5-0.1-3-0.1-4.6c0-0.7,0.1-1.5,0.4-2.1c0.2-0.4,0.5-0.4,0.7,0C6,17.7,6,18,6,18.3
		c0,0.4,0,0.8,0,1.3c0,0.7-0.1,1.4-0.1,2.1c-0.1,0.6-0.1,1.1-0.2,1.7h3.4c0,0,0.3-2.3,0.3-2.6c0.3,0.7,0.8,1.2,1.5,1.6
		c1.2,0.6,2.8,0.5,3.9-0.4l0,0c0.4-0.3,0.7-0.7,0.8-1c0.1-0.2,0.2-0.4,0.3-0.5c1.4,3.8,4.1,2.4,4.5,2.1l0.1,0.4l2.4-0.5
		c0.4,0.8,1,1.5,1.9,1.7c1,0.3,2.2,0.1,3-0.6l0,0c0.6-0.5,1.1-1.3,1.3-2c0.5,0.8,1.4,1.3,2.3,1.4s1.9-0.2,2.5-0.9
		C35.2,21,35.2,18.9,35.2,17.3z M-12.9,13.6c-0.6,0-0.9,1.1-0.9,1.1s-0.1,0.4,0,1.7c0.1,1.4,0.5,3.4,0.5,3.4l-2.3,0.1
		c0,0-0.1-2.6-0.2-4.2c-0.1-1.6-0.3-3.6-0.3-3.6l1.9-0.2l-0.1,1.4c0,0,0.3-0.7,0.4-1.1c1.1-2.2,3.4-0.5,3.4,1.8l-1.7,0.6
		C-12.1,14.4-12.4,13.6-12.9,13.6z M-8.7,23.4c-2.5,0.3-3.3-3.3-3.4-4c-0.3-2.9,0.9-4.3,2.4-4.4c2.6-0.2,3,3.4,3,4.1
		c-1.5,0.3-3.4,0.5-3.4,0.5s0.2,1.7,0.5,2.1c0.2,0.3,0.9,0.3,1.1-0.1c0.2-0.3,0.1-1.2,0.1-1.6l1.8-0.3C-6.5,20.2-6.2,23.1-8.7,23.4z
		 M-3.6,19.4c0.2,0.3,0.8,0.4,1.1,0.1c0.2-0.3,0.3-1.1,0.3-1.5l1.9-0.1c-0.1,0.4-0.1,3.2-2.6,3.2s-2.8-3.7-2.8-4.4
		c0-2.9,1.4-4.1,3-4c2.6,0.1,2.5,3.7,2.4,4.4c-1.5,0.1-3.4,0.1-3.4,0.1S-3.8,18.9-3.6,19.4z M8.3,22.4H6.7c0,0,1-6.7-1-6.5
		c-1.3,0.1-1.8,2.4-1.8,3.6S4,23.1,4,23.1H1.5l-0.8-14L2.9,9L3,16.9c0,0,0.5-4.1,2.7-4s2.9,2.9,2.9,4.9S8.3,22.4,8.3,22.4z
		 M15.6,17.8c-0.2,2.9-1.6,4.1-3.2,4.1c-1.8,0-2.8-1.7-2.7-4.3c0.1-2.8,2-3.8,3-3.8C15.3,13.9,15.7,16.6,15.6,17.8z M21.1,21.9
		l-0.3-1.4c0,0-0.6,1.7-2,1.7c-1.7,0-2.4-2.3-2.4-3.9c-0.1-1.6,0.2-3.7,0.2-3.7h1.6c0,0-0.6,5.7,0.8,5.7c0.7,0,1-0.5,1-2.8
		c0-1-0.2-3.3-0.2-3.3l2-0.2l0.6,7.6L21.1,21.9z M28,21.9c-0.5,1-1.4,1.7-2.5,1.6c-0.9-0.1-1.6-0.7-2-1.6c-0.2-0.5-0.2-1.2-0.2-1.7
		l1.5-0.1c0,0.7,0.1,1.8,0.9,1.8c0.9,0.1,1.5-1.1,0.4-2.1c-0.3-0.3-2.7-1.4-2.8-2.8c-0.2-1.5,1-3.4,2.8-3.1c2,0.3,2,2.5,2,3.4
		L26.5,17c0.1-0.6,0.1-1.6-0.6-1.8c-0.6-0.2-1.2,0.6-0.8,1.5c0.2,0.6,2.2,1.6,2.9,2.3C28.5,19.8,28.4,21.1,28,21.9z M31.1,20.5
		c0.2,0.3,0.8,0.4,1.1,0.1c0.2-0.3,0.2-1.1,0.3-1.5h1.8c-0.1,0.4-0.1,3.1-2.5,3.1c-2.5,0-2.7-3.6-2.7-4.2c0.1-2.8,1.4-4,2.9-3.9
		c2.5,0.2,2.4,3.6,2.4,4.3c-1.5,0.1-3.3,0.1-3.3,0.1S30.8,20.1,31.1,20.5z"/>
</g>
</svg>
