<?xml version="1.0" encoding="utf-8"?>
<!-- Generator: Adobe Illustrator 21.1.0, SVG Export Plug-In . SVG Version: 6.00 Build 0)  -->
<svg version="1.1" id="Disney_Jr" xmlns="http://www.w3.org/2000/svg" xmlns:xlink="http://www.w3.org/1999/xlink" x="0px" y="0px"
	 viewBox="0 0 125 125" style="enable-background:new 0 0 125 125;" xml:space="preserve">
<style type="text/css">
	.st0{display:none;}
	.st1{display:inline;fill:#FFFFFF;}
	.st2{fill:#FFFFFF;}
</style>
<g class="st0">
	<path class="st1" d="M180.2,17.3c-0.1-2.7-1.9-3.7-1.9-3.7c-1.3-0.8-3-0.5-4,0.6l0,0c-0.2,0.2-0.4,0.5-0.5,0.8
		c-0.3-0.9-1-1.6-2-1.9c-1.2-0.3-2.4,0-3.3,0.9l0,0c-0.4,0.4-0.5,0.7-0.6,0.8l-0.2-2l-3.7,0.5l0,0v0.4h-3.2l-0.1,0.8l0,0
		c-0.5-0.8-1.3-1.4-2.2-1.5c-1.3-0.2-2.5,0.2-3.4,1.2l0,0c-0.3,0.4-0.7,0.8-0.9,1.4c0-0.1-0.4-2.1-1.9-3.1c-1.1-0.7-2.5-0.6-3.5,0.3
		l-0.1-4.6l-4,0.1L145,14c-0.5-1-1.3-1.8-2.4-1.9c-1.1-0.2-2.3,0.2-3.1,1l0,0c-0.6,0.6-1,1.6-1.2,3c-0.6-1-1.6-1.9-2.9-1.9l0,0
		c0-1.3-0.6-2.6-1.7-3.3l1.8-0.1L135,5.9L118.2,7l0.8,4.7l5.2-0.4c0.2,5.3-0.9,12.8-0.9,12.8h5.8l-0.2-3.2l3.5-0.2
		c0.2,0.9,0.6,1.9,1.2,2.6c0.5,0.5,1.1,0.9,1.7,1c0.9,0.1,2-0.1,2.7-0.7l0,0c1-0.8,1.2-2.1,1.2-3.3c0.5,0.7,1.2,1.3,2,1.5
		c0.9,0.2,2,0,2.8-0.6l0,0c0.7-0.6,1-1.4,1.2-2.3l0.3,5.2h4.3c0-1.5-0.1-3-0.1-4.6c0-0.7,0.1-1.5,0.4-2.1c0.2-0.4,0.5-0.4,0.7,0
		c0.1,0.3,0.1,0.6,0.1,0.9c0,0.4,0,0.8,0,1.3c0,0.7-0.1,1.4-0.1,2.1c-0.1,0.6-0.1,1.1-0.2,1.7h3.4c0,0,0.3-2.3,0.3-2.6
		c0.3,0.7,0.8,1.2,1.5,1.6c1.2,0.6,2.8,0.5,3.9-0.4l0,0c0.4-0.3,0.7-0.7,0.8-1c0.1-0.2,0.2-0.4,0.3-0.5c1.4,3.8,4.1,2.4,4.5,2.1
		l0.1,0.4l2.4-0.5c0.4,0.8,1,1.5,1.9,1.7c1,0.3,2.2,0.1,3-0.6l0,0c0.6-0.5,1.1-1.3,1.3-2c0.5,0.8,1.4,1.3,2.3,1.4
		c0.9,0.1,1.9-0.2,2.5-0.9C180.2,21,180.2,18.9,180.2,17.3z M132.1,13.6c-0.6,0-0.9,1.1-0.9,1.1s-0.1,0.4,0,1.7
		c0.1,1.4,0.5,3.4,0.5,3.4l-2.3,0.1c0,0-0.1-2.6-0.2-4.2c-0.1-1.6-0.3-3.6-0.3-3.6l1.9-0.2l-0.1,1.4c0,0,0.3-0.7,0.4-1.1
		c1.1-2.2,3.4-0.5,3.4,1.8l-1.7,0.6C132.9,14.4,132.6,13.6,132.1,13.6z M136.3,23.4c-2.5,0.3-3.3-3.3-3.4-4
		c-0.3-2.9,0.9-4.3,2.4-4.4c2.6-0.2,3,3.4,3,4.1c-1.5,0.3-3.4,0.5-3.4,0.5s0.2,1.7,0.5,2.1c0.2,0.3,0.9,0.3,1.1-0.1
		c0.2-0.3,0.1-1.2,0.1-1.6l1.8-0.3C138.5,20.2,138.8,23.1,136.3,23.4z M141.4,19.4c0.2,0.3,0.8,0.4,1.1,0.1c0.2-0.3,0.3-1.1,0.3-1.5
		l1.9-0.1c-0.1,0.4-0.1,3.2-2.6,3.2s-2.8-3.7-2.8-4.4c0-2.9,1.4-4.1,3-4c2.6,0.1,2.5,3.7,2.4,4.4c-1.5,0.1-3.4,0.1-3.4,0.1
		S141.2,18.9,141.4,19.4z M153.3,22.4h-1.6c0,0,1-6.7-1-6.5c-1.3,0.1-1.8,2.4-1.8,3.6s0.1,3.6,0.1,3.6h-2.5L145.7,9l2.2-0.1l0.1,7.9
		c0,0,0.5-4.1,2.7-4s2.9,2.9,2.9,4.9C153.6,19.8,153.3,22.4,153.3,22.4z M160.6,17.8c-0.2,2.9-1.6,4.1-3.2,4.1
		c-1.8,0-2.8-1.7-2.7-4.3c0.1-2.8,2-3.8,3-3.8C160.3,13.9,160.7,16.6,160.6,17.8z M166.1,21.9l-0.3-1.4c0,0-0.6,1.7-2,1.7
		c-1.7,0-2.4-2.3-2.4-3.9c-0.1-1.6,0.2-3.7,0.2-3.7h1.6c0,0-0.6,5.7,0.8,5.7c0.7,0,1-0.5,1-2.8c0-1-0.2-3.3-0.2-3.3l2-0.2l0.6,7.6
		L166.1,21.9z M173,21.9c-0.5,1-1.4,1.7-2.5,1.6c-0.9-0.1-1.6-0.7-2-1.6c-0.2-0.5-0.2-1.2-0.2-1.7l1.5-0.1c0,0.7,0.1,1.8,0.9,1.8
		c0.9,0.1,1.5-1.1,0.4-2.1c-0.3-0.3-2.7-1.4-2.8-2.8c-0.2-1.5,1-3.4,2.8-3.1c2,0.3,2,2.5,2,3.4l-1.6-0.3c0.1-0.6,0.1-1.6-0.6-1.8
		c-0.6-0.2-1.2,0.6-0.8,1.5c0.2,0.6,2.2,1.6,2.9,2.3C173.5,19.8,173.4,21.1,173,21.9z M176.1,20.5c0.2,0.3,0.8,0.4,1.1,0.1
		c0.2-0.3,0.2-1.1,0.3-1.5h1.8c-0.1,0.4-0.1,3.1-2.5,3.1c-2.5,0-2.7-3.6-2.7-4.2c0.1-2.8,1.4-4,2.9-3.9c2.5,0.2,2.4,3.6,2.4,4.3
		c-1.5,0.1-3.3,0.1-3.3,0.1S175.8,20.1,176.1,20.5z"/>
</g>
<g>
	<path class="st2" d="M91.2,53.6c-0.8,0.1-3,2.1-3.1,8.2c-0.1,6.1,2,8.3,3.1,8.2c1.2-0.1,3-2.4,3-8.5C94.2,55.4,92.3,53.4,91.2,53.6
		"/>
	<path class="st2" d="M76.2,59.9c-0.7,0-2.2,2-2.3,6c-0.1,4,1.2,6.8,2.3,6.7c1.2,0,2.3-2.8,2.3-6.9C78.6,61.5,77.1,59.9,76.2,59.9"
		/>
	<path class="st2" d="M114.2,50l-15.1-2.4l-3,0.3l-0.5-0.5c-1.2-1-2.8-1.8-4.9-1.8c-0.3,0-7.5,0.6-7.5,0.6V45l-20.5-3.3l-15.6,2.5
		l-3.7-0.5l-6,1v0.9l-26.7,4.4l0.2,7.9l3.9-0.2l0.5,16.9l10.2,1.8v0.7l12.1,2.1l1.7-0.2l23.3,4.3l7-1.3v-1.8l4.9,0.6
		c0,0,1.6,0.2,2.5-0.1c1.5-0.3,2.9-1.8,3.9-2.9l7.6,0.7c0.5,0,1.2,0.2,3,0c0.9-0.1,2.5-0.9,3.3-1.7l2.3,0.2l16.2-3 M24.3,55.1
		l0.3,19.4l-7.5-1l-0.3-17.7l-4.7,0.5L12,51.5l25.1-3.7v6L24.3,55.1z M37,77.6l-10.2-1.7l-0.2-18.6l10.4-0.9v4.8l-5.2,0.2v3.8H35v3
		L31.8,68v4.3l5.2,0.5V77.6z M52.7,79.4l-14-2.2l-0.1-31.3l4.3-0.7l0.1,27.1l9.9,1v6H52.7z M55.8,57.6L48.2,58l0.1,2.9h4.8v3h-4.7
		l-0.1,3.2l7.5,0.1v4.4l-10.7-0.9L45,54.6l10.8-1.2C55.8,53.4,55.8,57.6,55.8,57.6z M67.9,51v29.3l-5.1,0.8l-5.1-0.8V50.9l-13.2,1.3
		l-0.1-5.6l18.4-2.8l19,2.8v5.8L67.9,51z M81.5,72.2c-0.9,4.4-3.5,7.2-5.5,7.2s-6.2-3.2-6.4-10.2c-0.3-7.1,0.8-9.7,1.8-12.1
		c1-2.4,3-4.5,4.7-4.5c1.3,0,3.6,1.2,4.9,5.2c1.4,4.1,1.4,9.9,0.5,14.3 M97.5,70.6c-1.3,3.6-3.9,6.6-6.3,6.8c-2.1,0.1-5.2-1.4-7-5.8
		C82,66.6,81.9,60.1,84,54.2c2.1-5.8,5.5-7,6.9-7.2c2-0.2,5.2,1.3,6.9,7.6C99.8,61,98.6,67.2,97.5,70.6 M112.5,73l-3.5,0.6l-3.7-9.3
		l-0.2,10l-4.9,0.8l0.3-26.1l4.7,0.8l4,9.1v-8.4l3.8,0.6L112.5,73z"/>
</g>
</svg>
