<?xml version="1.0" encoding="utf-8"?>
<!-- Generator: Adobe Illustrator 21.1.0, SVG Export Plug-In . SVG Version: 6.00 Build 0)  -->
<svg version="1.1" id="Disney_Jr" xmlns="http://www.w3.org/2000/svg" xmlns:xlink="http://www.w3.org/1999/xlink" x="0px" y="0px"
	 viewBox="0 0 125 125" style="enable-background:new 0 0 125 125;" xml:space="preserve">
<style type="text/css">
	.st0{fill:#FFFFFF;}
</style>
<g>
	<g>
		<path class="st0" d="M116.2,67c-0.2-2.8-1.2-5.4-2.5-7.2c-1.5-2-3.4-3.1-5.7-3.1c-1.6,0-3.2,0.5-4.9,1.6c-1.4-1.3-3.1-1.9-4.9-1.9
			c-1,0-2,0.2-2.9,0.6l-0.1-1.3L84,57.1l0.1,0.6h-3c-0.9-0.6-2.6-1.4-4.6-1.4c-1.9,0-3.8,0.6-5.3,1.9c-1.5-2.2-3.8-3.4-6.2-3.4
			c-0.2,0-0.4,0-0.6,0l-0.1-6.5l-11.5,0.3L53,55c-0.8-0.2-1.4-0.3-2.2-0.3c-3,0-5.8,1.8-7.2,4.5c-0.4-0.2-0.9-0.4-1.3-0.5
			c-0.1-0.3-0.2-0.8-0.3-1.1l1-0.1l-1.3-12.9l-33,2.4L11,59.6l8.4-0.6c0.1,8.3-1.8,21-1.8,21h15.2c0,0-0.3-4.1-0.5-5.7h1
			c0.6,1.9,1.7,3.4,3.1,4.5c1.3,1,2.9,1.5,4.6,1.5c3.3,0,6.3-1.9,7.2-4.4c0.8,0.3,1.7,0.4,2.7,0.4c1.2,0,2.5-0.2,3.4-0.8l0.3,4.4
			h11.9l-0.1-1.6h6.5l0.2-1.6c1.1,0.4,2.2,0.6,3.2,0.6c2,0,3.8-0.8,4.9-1.6c1.3,1.7,3.3,2.7,5.9,2.7c1.9,0,3.9-0.5,4.9-1
			c1.5,1.9,3.7,3,6,3c2.6,0,4.9-1.3,6-3.2c1.5,0.9,3,1.3,4.4,1.3l0,0c1.9,0,3.7-0.8,5.1-2.4C115.5,73.9,116.5,70.5,116.2,67z
			 M111.6,74c-1.1,1.1-2.7,1.6-4.2,1.4c-1.5-0.2-2.9-1.1-3.8-2.4c-0.3,1.3-1.1,2.5-2.2,3.3l0,0c-1.4,1.2-3.2,1.5-4.9,1
			c-1.4-0.4-2.5-1.5-3.1-2.9l-4,0.8l-0.1-0.6c-0.5,0.6-5.1,2.8-7.3-3.4c-0.1,0.1-0.2,0.4-0.4,0.8c-0.3,0.4-0.8,1.1-1.4,1.6l0,0
			c-1.7,1.5-4.4,1.7-6.5,0.6c-1.1-0.5-1.8-1.5-2.4-2.6c0,0.3-0.4,4.2-0.4,4.2h-5.6c0.1-0.9,0.2-1.8,0.3-2.7c0.1-1.2,0.2-2.4,0.2-3.4
			c0-0.6,0-1.4,0-2c0-0.4,0-1-0.2-1.4c-0.3-0.6-0.8-0.5-1.1,0c-0.5,1-0.6,2.4-0.6,3.4c0,2.5,0.1,4.9,0.2,7.5H57l-0.4-8.5
			c-0.3,1.4-0.9,2.8-2,3.7l0,0c-1.2,1-3,1.3-4.5,1c-1.4-0.3-2.6-1.3-3.3-2.5c-0.1,2-0.3,4.1-1.9,5.4l0,0c-1.2,1-3,1.4-4.5,1.2
			c-1.1-0.2-2.2-0.8-2.9-1.6c-1.1-1.2-1.6-2.7-2-4.3l-5.7,0.3L30,77h-9.6c0,0,1.8-12.3,1.5-21l-8.5,0.8L12,49.1l27.8-1.9l0.8,8
			l-2.9,0.2c1.8,1.2,2.8,3.3,2.8,5.4l0,0c2,0,3.8,1.3,4.7,3c0.2-2.3,1-3.9,1.9-4.9l0,0c1.3-1.4,3.2-1.9,5.1-1.7
			c1.8,0.3,3.1,1.6,3.9,3.1l-0.5-9L62,51l0.1,7.6c1.5-1.4,3.9-1.5,5.7-0.4c2.6,1.6,3.1,4.8,3.1,5.1c0.3-1,0.9-1.7,1.4-2.3l0,0
			c1.4-1.5,3.6-2.3,5.6-1.9c1.6,0.3,2.8,1.2,3.7,2.6l0,0l0.2-1.3h5.2l-0.1-0.6l0,0l6.1-0.8l0.3,3.3c0.1-0.2,0.4-0.8,1-1.4l0,0
			c1.4-1.5,3.4-2,5.4-1.5c1.6,0.4,2.7,1.6,3.2,3.1c0.2-0.4,0.5-0.9,0.9-1.3l0,0c1.6-1.8,4.5-2.4,6.6-1.1c0,0,2.9,1.6,3.1,6
			C113.7,68.6,113.6,72,111.6,74z"/>
	</g>
	<g>
		<path class="st0" d="M56.7,52.6l3.6-0.1l0.2,12.9c0,0,0.8-6.7,4.4-6.6c3.7,0.1,4.7,4.6,4.8,8c0.1,3.3-0.4,7.5-0.4,7.5h-2.6
			c0,0,1.6-11-1.7-10.7c-2,0.2-2.9,3.9-2.9,5.9c0,2,0.1,6,0.1,6H58L56.7,52.6z"/>
		<path class="st0" d="M81.1,66.9c-0.3,4.7-2.6,6.7-5.3,6.7c-2.9-0.1-4.6-2.8-4.5-7c0.1-4.6,3.3-6.2,4.9-6.1
			C80.6,60.5,81.2,64.9,81.1,66.9z M76.3,62.3c-1.2-0.1-1.5,1.9-1.7,4.2c-0.3,2.3-0.1,4.8,1.3,5.1c1.4,0.2,1.8-3.2,1.8-4.8
			C77.7,65.1,77.5,62.4,76.3,62.3z"/>
		<g>
			<g>
				<path class="st0" d="M27.3,62.7c0-4.3,0-4.3,0.3-8.2l11-0.6l-0.5-5.1l-24.7,1.7l0.9,4.8l8.7-0.8c0,0,0.1,4.6-0.1,10.1
					c-0.2,4.2-1.2,11.1-1.2,11.1l6.2-0.1C28,75.7,27.2,68.7,27.3,62.7z"/>
			</g>
		</g>
		<path class="st0" d="M38.6,60.8c-0.1-3.8-3.8-6.6-5.6-2.9c-0.3,0.5-0.6,1.7-0.6,1.7l0.1-2.4l-3.1,0.3c0,0,0.4,3.3,0.5,5.9
			s0.2,6.9,0.2,6.9l3.7-0.2c0,0-0.6-3.3-0.9-5.6c-0.2-2.3,0-2.8,0-2.8s0.4-1.7,1.5-1.8c1,0,1.3,1.3,1.4,1.9L38.6,60.8z"/>
		<path class="st0" d="M108.7,69.1c0,0.6-0.1,2-0.4,2.5c-0.4,0.5-1.4,0.4-1.7-0.1c-0.4-0.8-0.3-3.3-0.3-3.3s3.1,0,5.5-0.1
			c0.1-1.1,0.3-6.8-3.9-7c-2.5-0.1-4.7,1.7-4.7,6.3c0,1,0.4,6.9,4.5,6.9c4,0,4.1-4.5,4.2-5.1L108.7,69.1z M107.7,62.6
			c1.6,0.1,1.4,3.1,1.4,3.1s-2.5,0-2.9,0C106.2,64.7,106.4,62.5,107.7,62.6z"/>
		<path class="st0" d="M42,70.7c0.1,0.6,0.2,2-0.1,2.6c-0.3,0.6-1.4,0.6-1.8,0.1c-0.5-0.6-0.8-3.4-0.8-3.4s3.1-0.4,5.5-0.9
			c0-1.1-0.6-7-4.9-6.7c-2.6,0.2-4.5,2.4-4,7.2c0.1,1,1.4,7,5.5,6.5c4.1-0.5,3.6-5.2,3.6-5.8L42,70.7z M40,64.2c1.6-0.1,1.8,3,1.8,3
			s-2.5,0.3-2.9,0.4C38.7,66.6,38.7,64.3,40,64.2z"/>
		<path class="st0" d="M52,67c0,0.6-0.1,2-0.4,2.5c-0.4,0.5-1.5,0.4-1.8-0.1c-0.4-0.8-0.3-3.6-0.3-3.6s3.1,0,5.6-0.1
			c0.1-1.1,0.2-7-4-7.2c-2.6-0.1-4.8,1.8-4.8,6.6c0,1,0.5,7.1,4.6,7.1c4.2,0,4.2-4.6,4.3-5.3L52,67z M50.9,60.5
			c1.6,0.1,1.4,3.2,1.4,3.2s-2.5,0-2.9,0C49.4,62.6,49.7,60.3,50.9,60.5z"/>
		<path class="st0" d="M92.4,73.2l-2.3,0.4l-0.5-2.4c0,0-1.1,2.8-3.2,2.8c-2.8,0-3.9-3.8-4-6.3c-0.1-2.6,0.3-6,0.3-6h2.7
			c0,0-1,9.3,1.4,9.4c1.1,0,1.6-0.8,1.6-4.5c0-1.6-0.2-5.4-0.2-5.4l3.2-0.4L92.4,73.2z"/>
		<path class="st0" d="M96.6,65.2c-0.5-1.5,0.4-2.8,1.4-2.5c1.2,0.3,1.1,2,1,2.9l2.6,0.4c0.1-1.5,0-5.2-3.2-5.6
			c-2.9-0.4-4.9,2.7-4.6,5.2c0.3,2.3,4.2,4.1,4.6,4.5c1.8,1.6,0.8,3.4-0.6,3.3c-1.3-0.1-1.5-1.8-1.5-3l-2.5,0.2
			c0,0.8,0.1,1.8,0.4,2.7c0.5,1.4,1.8,2.6,3.2,2.7c1.9,0.1,3.3-1,4.2-2.6c0.6-1.4,0.8-3.4-0.1-4.5C100.3,67.8,96.9,66.2,96.6,65.2z"
			/>
	</g>
</g>
</svg>
