<?xml version="1.0" encoding="utf-8"?>
<!-- Generator: Adobe Illustrator 21.1.0, SVG Export Plug-In . SVG Version: 6.00 Build 0)  -->
<svg version="1.1" id="Disney_Jr" xmlns="http://www.w3.org/2000/svg" xmlns:xlink="http://www.w3.org/1999/xlink" x="0px" y="0px"
	 viewBox="0 0 125 125" style="enable-background:new 0 0 125 125;" xml:space="preserve">
<style type="text/css">
	.st0{fill:#FFFFFF;}
</style>
<g id="Layer_2_2_">
	<g id="Layer_16_copy_1_">
		<path class="st0" d="M103.9,33.8v0.4c-0.1,0.1-0.1,0.3-0.1,0.4c-1.4,3.9-2.8,8-4.3,12.1c-0.4,1-1,1.9-1.8,2.8
			c-0.4,0.5-0.6,0.8-0.3,1.4c1.4,2.9,2.2,6.1,2.3,9.3c0.4,5.3-0.8,10.7-3.2,15.4c-3.8,7-9.9,12.5-17.3,15.3c-5,2-10.1,3.3-15.4,3.7
			c-0.9,0-1.8,0.3-2.7,0.4H50.4c-0.1-0.1-0.3-0.1-0.4-0.1c-2.7-0.3-5.5-0.4-8-0.8c-2.5-0.3-5.6-0.8-8.4-1.1l-0.3-0.4
			c0.3-0.1,0.5-0.3,0.8-0.4L44.2,83c0.4-0.4,0.6-0.6,0.1-1.1c-4.7-5.5-7.1-12.5-7-19.7c0-0.4-0.3-0.8-0.5-1c-1.7-1.4-3.3-2.9-5-4.3
			l-10.7-9.2v-0.1l0.6-0.1c3.7-0.6,7.3-1.4,11-2c1.8-0.4,3.7-0.6,5.5-0.9c1.8-0.3,3.6,0.1,5.1,1c0.1-0.1,0.3-0.3,0.4-0.4
			c2.8-3.7,6.4-6.6,10.4-8.7c7.3-3.3,15-5.2,22.9-5.7l3.7-0.4h13c0.3,0.1,0.4,0.1,0.6,0.1c1.4,0,2.9,0.1,4.3,0.3
			c1,0,1.9,0.1,3.1,0.3L98,34.8l0.9-0.1L103.9,33.8z M43.5,90.7c2.3-0.4,4.5-0.6,6.6-1c2.4-0.3,4.5-1.9,5.2-4.3
			c4.2-13.5,8.4-27,12.6-40.5c0.6-2.2,1.4-4.5,2-6.8c-2.4,0.4-4.8,0.8-7.1,1.1c-2,0.1-3.7,1.5-4.3,3.4c-0.8,2.7-1.7,5.2-2.5,7.8
			s-1.7,5.2-2.5,7.8c-0.3,0.6-0.5,0.8-1,0.3l-0.4-0.3l-9.3-8.5c-1.3-1.3-2.9-2-4.7-1.8c-1.8,0.3-3.7,0.6-5.5,1l-3.2,0.5
			c0.1,0.1,0.1,0.3,0.3,0.3c6.8,5.7,13.5,11.6,20.3,17.3c0.5,0.3,0.6,0.9,0.4,1.4c-1.3,3.8-2.4,7.6-3.7,11.5
			C45.8,83.6,44.7,87.1,43.5,90.7z M64.7,62.3c-0.8,2.2-1.4,4.2-2.2,6.2c-0.5,1.3-0.3,2.7,0.6,3.7c0.9,1.1,1.8,2.3,2.8,3.3
			c1.8,2,3.7,4.2,5.5,6.2c0.8,0.9,2,1.4,3.3,1.1c1.7-0.3,3.3-0.6,5-0.8c2.8-0.1,5.2-2.2,5.7-5c2.5-7.8,5.2-15.4,7.9-23.1
			c0-0.1,0-0.4,0-0.5c-0.1,0-0.4,0-0.5,0l-6.5,1.1c-1.5,0.3-2.8,1.4-3.2,2.9c-2,6-4.2,12.1-6.4,18.1c-0.1,0.3-0.3,0.6-0.5,0.6
			c-0.3,0-0.6-0.3-0.8-0.5c-2.2-2.8-4.3-5.5-6.5-8.3L64.7,62.3z M76.1,68.8c0.6-1.7,1.1-3.2,1.7-4.6c1.8-4.7,3.7-9.4,5.5-14
			c0.1-0.4,0.5-0.8,0.9-0.9c0.4-0.1,0.9-0.3,1.4-0.3c2.5-0.5,5.1-0.9,7.6-1.4c1.3-0.3,2.4-1.1,2.8-2.5c0.8-2.2,1.4-4.2,2-6.4
			c0-0.1,0-0.3,0-0.4l-10.4,1.8c-3.8,0.6-7.6,1.4-11.6,2c-1.9,0-3.8,0.9-5.1,2.4c-0.3,0.3-0.4,0.4-0.5,0.6c-0.9,2.2-1.8,4.3-2.8,6.6
			l6.4-1c-0.9,3.1-1.8,6-2.7,8.9c-0.5,1.1-0.4,2.5,0.3,3.7C73.1,65.3,74.6,66.9,76.1,68.8z M94.9,55h-0.1c-0.4,1-0.8,2-1.1,3.2
			c-0.1,0.4-0.3,0.8-0.3,1.1c0,1.8,0.1,3.7,0,5.5c-0.5,4.6-2.2,8.9-5.1,12.5c-0.9,1.3-1.9,2.4-2.9,3.7c-0.8,1.3-2,2.2-3.6,2.5
			c-0.6,0.1-1.3,0.4-1.8,0.8c-5.2,2.9-11.3,3.8-17.3,2.7c-1.9-0.4-3.8-1-5.9-1.5l-0.4,1l0.3,0.1c5.3,2.3,11.2,2.9,16.9,1.8
			c8.3-1.5,15.4-6.8,19.4-14.3c2.4-4.7,3.4-9.9,2.7-15.2C95.6,57.5,95.2,56.2,94.9,55L94.9,55z M45.8,50.6h0.3
			c0.1-0.1,0.3-0.3,0.3-0.4c3.6-6,9.2-9.4,15.4-11.8c2.3-0.6,4.7-1.1,7.1-1.3l2.7-0.5c-8.8-2.2-23.1,4.8-26.7,12.9L45.8,50.6z
			 M41.1,61.5c-1.3,3.2,2,14,5.1,16.4c0-0.8,0.3-1.5,0-1.9c-2.3-3.6-3.6-7.8-3.7-12.1C42.5,63,42,62,41.1,61.5L41.1,61.5z
			 M82.8,39.9c-3.1-1.8-6.5-2.9-10.1-3.4c-0.4,0-0.8,0-0.9,0.5c0,0.3-0.1,0.6-0.3,0.9c2.5,0.3,5,0.9,7.3,2
			C80.3,40.6,81.3,40.1,82.8,39.9z M68.7,81.2c-0.3-0.9-1.3-1.5-2.3-1.4c-0.8,0-1.4-0.1-2.2-0.3c-1.8-0.5-3.4-1-5.2-1.5l-0.4,1.1
			C61.9,80.7,65.3,81.3,68.7,81.2L68.7,81.2z M55.9,47.1c-2.3,1.7-4.2,3.8-5.5,6.4c-0.6,1.1-0.6,1.3,0.4,1.8c1-1.5,2-3.1,3.2-4.5
			C55,49.7,55.6,48.5,55.9,47.1z M94,52.3c-0.5-1-1-1.8-1.4-2.8c-0.1-0.1-0.3-0.3-0.4-0.3c-0.6,0-1.3,0.3-1.9,0.4l1.5,3.1L94,52.3z
			 M83.9,54.7l1.1-0.6l-1.3-2.2C83,52.7,83,53.8,83.9,54.7C83.8,54.7,83.9,54.7,83.9,54.7z"/>
	</g>
</g>
</svg>
